<svg width="60" height="60" viewBox="0 0 60 60" fill="none" xmlns="http://www.w3.org/2000/svg">
<path d="M56.5 60C49.5556 60 42.6944 58.4867 35.9167 55.46C29.1389 52.4333 22.9722 48.1411 17.4167 42.5833C11.8611 37.0278 7.57 30.8611 4.54333 24.0833C1.51667 17.3056 0.00222222 10.4444 0 3.5C0 2.5 0.333333 1.66667 1 1C1.66667 0.333333 2.5 0 3.5 0H17C17.7778 0 18.4722 0.264444 19.0833 0.793333C19.6944 1.32222 20.0556 1.94667 20.1667 2.66667L22.3333 14.3333C22.4444 15.2222 22.4167 15.9722 22.25 16.5833C22.0833 17.1944 21.7778 17.7222 21.3333 18.1667L13.25 26.3333C14.3611 28.3889 15.68 30.3744 17.2067 32.29C18.7333 34.2056 20.4144 36.0533 22.25 37.8333C23.9722 39.5556 25.7778 41.1533 27.6667 42.6267C29.5556 44.1 31.5556 45.4467 33.6667 46.6667L41.5 38.8333C42 38.3333 42.6533 37.9589 43.46 37.71C44.2667 37.4611 45.0578 37.3911 45.8333 37.5L57.3333 39.8333C58.1111 40.0556 58.75 40.4589 59.25 41.0433C59.75 41.6278 60 42.28 60 43V56.5C60 57.5 59.6667 58.3333 59 59C58.3333 59.6667 57.5 60 56.5 60Z" fill="#9FA3D0"/>
</svg>
