<svg width="49" height="70" viewBox="0 0 49 70" fill="none" xmlns="http://www.w3.org/2000/svg">
<path d="M24.5 33.25C22.1794 33.25 19.9538 32.3281 18.3128 30.6872C16.6719 29.0462 15.75 26.8206 15.75 24.5C15.75 22.1794 16.6719 19.9538 18.3128 18.3128C19.9538 16.6719 22.1794 15.75 24.5 15.75C26.8206 15.75 29.0462 16.6719 30.6872 18.3128C32.3281 19.9538 33.25 22.1794 33.25 24.5C33.25 25.6491 33.0237 26.7869 32.5839 27.8485C32.1442 28.9101 31.4997 29.8747 30.6872 30.6872C29.8747 31.4997 28.9101 32.1442 27.8485 32.5839C26.7869 33.0237 25.6491 33.25 24.5 33.25ZM24.5 0C18.0022 0 11.7705 2.58124 7.17588 7.17588C2.58124 11.7705 0 18.0022 0 24.5C0 42.875 24.5 70 24.5 70C24.5 70 49 42.875 49 24.5C49 18.0022 46.4188 11.7705 41.8241 7.17588C37.2295 2.58124 30.9978 0 24.5 0Z" fill="#9FA3D0"/>
</svg>
