<svg width="69" height="55" viewBox="0 0 69 55" fill="none" xmlns="http://www.w3.org/2000/svg">
<path d="M6.9 55C5.0025 55 3.3787 54.3274 2.0286 52.9822C0.6785 51.637 0.0023 50.0179 0 48.125V6.875C0 4.98437 0.6762 3.36646 2.0286 2.02125C3.381 0.676041 5.0048 0.00229167 6.9 0H62.1C63.9975 0 65.6224 0.673749 66.9748 2.02125C68.3272 3.36875 69.0023 4.98667 69 6.875V48.125C69 50.0156 68.3249 51.6347 66.9748 52.9822C65.6247 54.3297 63.9998 55.0023 62.1 55H6.9ZM34.5 30.9375L62.1 13.75V6.875L34.5 24.0625L6.9 6.875V13.75L34.5 30.9375Z" fill="#9FA3D0"/>
</svg>
